<mxfile type="github" version="12.2.4" pages="1" etag="bZAUW6zTYoByUQ-HCSyC" agent="Mozilla/5.0 (Windows NT 10.0; Win64; x64) AppleWebKit/537.36 (KHTML, like Gecko) Chrome/70.0.3538.102 Safari/537.36 Edge/18.18362" modified="2019-11-12T16:29:09.207Z" host="www.draw.io">
  <diagram id="ff44883e-f642-bcb2-894b-16b3d25a3f0b" name="Page-1">
    <mxGraphModel grid="1" shadow="0" math="0" background="#ffffff" pageHeight="826" pageWidth="1169" pageScale="1.5" page="1" fold="1" arrows="1" connect="1" tooltips="1" guides="1" gridSize="10" dy="1513" dx="2725">
      <root>
        <mxCell id="0" style=";html=1;"/>
        <mxCell id="1" style=";html=1;" parent="0"/>
        <mxCell id="oMpaP64kIfc9-obc2K5m-50" style="rounded=0;whiteSpace=wrap;html=1;fillColor=#fff2cc;strokeColor=#d6b656;" value="" parent="1" vertex="1">
          <mxGeometry height="540" as="geometry" y="650" x="185" width="1145"/>
        </mxCell>
        <mxCell id="oMpaP64kIfc9-obc2K5m-51" style="rounded=0;whiteSpace=wrap;html=1;fontSize=40;rotation=-90;fontStyle=1;fillColor=#fff2cc;strokeColor=#d6b656;" value="ПОСТУПЛЕНИЕ" parent="1" vertex="1">
          <mxGeometry height="77" as="geometry" y="882" x="1020" width="538"/>
        </mxCell>
        <mxCell id="oMpaP64kIfc9-obc2K5m-1" style="rounded=0;whiteSpace=wrap;html=1;fillColor=#fff2cc;strokeColor=#d6b656;" value="" parent="1" vertex="1">
          <mxGeometry height="540" as="geometry" y="100" x="185" width="1145"/>
        </mxCell>
        <mxCell id="oMpaP64kIfc9-obc2K5m-3" style="rounded=1;whiteSpace=wrap;html=1;" value="&lt;font style=&quot;font-size: 37px&quot;&gt;Заказ клиента&lt;/font&gt;" parent="1" vertex="1">
          <mxGeometry height="60" as="geometry" y="109" x="246.5" width="260"/>
        </mxCell>
        <mxCell id="oMpaP64kIfc9-obc2K5m-4" style="rounded=0;whiteSpace=wrap;html=1;fillColor=#f5f5f5;strokeColor=#666666;fontColor=#333333;" value="&lt;font style=&quot;font-size: 24px&quot;&gt;Не обеспечивать&lt;/font&gt;" parent="1" vertex="1">
          <mxGeometry height="60" as="geometry" y="169" x="246.5" width="260"/>
        </mxCell>
        <mxCell id="oMpaP64kIfc9-obc2K5m-55" style="edgeStyle=orthogonalEdgeStyle;rounded=0;orthogonalLoop=1;jettySize=auto;html=1;entryX=0;entryY=0.5;entryDx=0;entryDy=0;fontSize=37;" target="oMpaP64kIfc9-obc2K5m-52" parent="1" edge="1" source="oMpaP64kIfc9-obc2K5m-5">
          <mxGeometry as="geometry" relative="1">
            <Array as="points">
              <mxPoint y="259" x="150"/>
              <mxPoint y="725" x="150"/>
            </Array>
          </mxGeometry>
        </mxCell>
        <mxCell id="oMpaP64kIfc9-obc2K5m-5" style="rounded=0;whiteSpace=wrap;html=1;fontSize=24;fillColor=#ffe6cc;strokeColor=#d79b00;" value="Обеспечивать обособленно" parent="1" vertex="1">
          <mxGeometry height="60" as="geometry" y="229" x="246.5" width="260"/>
        </mxCell>
        <mxCell id="oMpaP64kIfc9-obc2K5m-6" style="rounded=0;whiteSpace=wrap;html=1;fontSize=24;fillColor=#ffe6cc;strokeColor=#d79b00;" value="Резервировать на складе" parent="1" vertex="1">
          <mxGeometry height="60" as="geometry" y="289" x="246.5" width="260"/>
        </mxCell>
        <mxCell id="oMpaP64kIfc9-obc2K5m-28" style="edgeStyle=orthogonalEdgeStyle;rounded=0;orthogonalLoop=1;jettySize=auto;html=1;entryX=0.5;entryY=0;entryDx=0;entryDy=0;fontSize=26;exitX=0.517;exitY=1.018;exitDx=0;exitDy=0;exitPerimeter=0;" target="oMpaP64kIfc9-obc2K5m-27" parent="1" edge="1" source="oMpaP64kIfc9-obc2K5m-32">
          <mxGeometry as="geometry" relative="1">
            <Array as="points">
              <mxPoint y="462" x="322"/>
            </Array>
          </mxGeometry>
        </mxCell>
        <mxCell id="oMpaP64kIfc9-obc2K5m-7" style="rounded=0;whiteSpace=wrap;html=1;fontSize=24;fillColor=#d5e8d4;strokeColor=#82b366;" value="Отгрузить" parent="1" vertex="1">
          <mxGeometry height="60" as="geometry" y="349" x="246.5" width="260"/>
        </mxCell>
        <mxCell id="oMpaP64kIfc9-obc2K5m-15" style="rounded=0;whiteSpace=wrap;html=1;fontSize=40;rotation=-90;fontStyle=1;fillColor=#fff2cc;strokeColor=#d6b656;" value="СПИСАНИЕ" parent="1" vertex="1">
          <mxGeometry height="77" as="geometry" y="331.5" x="1020" width="538"/>
        </mxCell>
        <mxCell id="oMpaP64kIfc9-obc2K5m-21" style="rounded=1;whiteSpace=wrap;html=1;" value="&lt;font style=&quot;font-size: 37px&quot;&gt;Расходный ордер на товары&lt;/font&gt;" parent="1" vertex="1">
          <mxGeometry height="90" as="geometry" y="109" x="649" width="303"/>
        </mxCell>
        <mxCell id="oMpaP64kIfc9-obc2K5m-37" style="edgeStyle=orthogonalEdgeStyle;rounded=0;orthogonalLoop=1;jettySize=auto;html=1;entryX=0.5;entryY=0;entryDx=0;entryDy=0;fontSize=37;exitX=1;exitY=0.5;exitDx=0;exitDy=0;" target="oMpaP64kIfc9-obc2K5m-36" parent="1" edge="1" source="oMpaP64kIfc9-obc2K5m-23">
          <mxGeometry as="geometry" relative="1">
            <Array as="points">
              <mxPoint y="289" x="1072"/>
            </Array>
          </mxGeometry>
        </mxCell>
        <mxCell id="oMpaP64kIfc9-obc2K5m-22" style="rounded=0;whiteSpace=wrap;html=1;fillColor=#ffe6cc;strokeColor=#d79b00;fontSize=26;" value="К отгрузке" parent="1" vertex="1">
          <mxGeometry height="60" as="geometry" y="199" x="646" width="308"/>
        </mxCell>
        <mxCell id="oMpaP64kIfc9-obc2K5m-39" style="edgeStyle=orthogonalEdgeStyle;rounded=0;orthogonalLoop=1;jettySize=auto;html=1;entryX=0.5;entryY=0;entryDx=0;entryDy=0;fontSize=37;exitX=1;exitY=0.5;exitDx=0;exitDy=0;" target="oMpaP64kIfc9-obc2K5m-36" parent="1" edge="1" source="oMpaP64kIfc9-obc2K5m-22">
          <mxGeometry as="geometry" relative="1">
            <Array as="points">
              <mxPoint y="229" x="1072"/>
            </Array>
          </mxGeometry>
        </mxCell>
        <mxCell id="oMpaP64kIfc9-obc2K5m-23" style="rounded=0;whiteSpace=wrap;html=1;fontSize=26;fillColor=#d5e8d4;strokeColor=#82b366;" value="Отгружен" parent="1" vertex="1">
          <mxGeometry height="60" as="geometry" y="259" x="645" width="309"/>
        </mxCell>
        <mxCell id="oMpaP64kIfc9-obc2K5m-27" style="rounded=1;whiteSpace=wrap;html=1;" value="&lt;font style=&quot;font-size: 37px&quot;&gt;Заявка на доставку&lt;/font&gt;" parent="1" vertex="1">
          <mxGeometry height="90" as="geometry" y="475" x="210" width="223"/>
        </mxCell>
        <mxCell id="oMpaP64kIfc9-obc2K5m-30" style="edgeStyle=orthogonalEdgeStyle;rounded=0;orthogonalLoop=1;jettySize=auto;html=1;fontSize=24;exitX=1;exitY=0.5;exitDx=0;exitDy=0;" target="oMpaP64kIfc9-obc2K5m-21" parent="1" edge="1" source="oMpaP64kIfc9-obc2K5m-29">
          <mxGeometry as="geometry" relative="1">
            <mxPoint as="targetPoint" y="180" x="645"/>
            <Array as="points">
              <mxPoint y="595" x="520"/>
              <mxPoint y="510" x="520"/>
              <mxPoint y="510" x="610"/>
              <mxPoint y="180" x="610"/>
            </Array>
          </mxGeometry>
        </mxCell>
        <mxCell id="oMpaP64kIfc9-obc2K5m-41" style="edgeStyle=orthogonalEdgeStyle;rounded=0;orthogonalLoop=1;jettySize=auto;html=1;entryX=0;entryY=0.5;entryDx=0;entryDy=0;fontSize=37;exitX=1;exitY=0.5;exitDx=0;exitDy=0;" target="oMpaP64kIfc9-obc2K5m-40" parent="1" edge="1" source="oMpaP64kIfc9-obc2K5m-29">
          <mxGeometry as="geometry" relative="1">
            <Array as="points">
              <mxPoint y="595" x="520"/>
              <mxPoint y="574" x="520"/>
            </Array>
          </mxGeometry>
        </mxCell>
        <mxCell id="oMpaP64kIfc9-obc2K5m-29" style="rounded=0;whiteSpace=wrap;html=1;fillColor=#d5e8d4;strokeColor=#82b366;fontSize=24;" value="К отбору" parent="1" vertex="1">
          <mxGeometry height="60" as="geometry" y="565" x="210.5" width="224"/>
        </mxCell>
        <mxCell id="oMpaP64kIfc9-obc2K5m-32" style="text;html=1;resizable=0;points=[];autosize=1;align=left;verticalAlign=top;spacingTop=-4;fontSize=24;" value="С доставкой" parent="1" vertex="1">
          <mxGeometry height="30" as="geometry" y="417" x="420" width="150"/>
        </mxCell>
        <mxCell id="oMpaP64kIfc9-obc2K5m-33" style="edgeStyle=orthogonalEdgeStyle;rounded=0;orthogonalLoop=1;jettySize=auto;html=1;entryX=0;entryY=0.5;entryDx=0;entryDy=0;fontSize=26;" target="oMpaP64kIfc9-obc2K5m-32" parent="1" edge="1" source="oMpaP64kIfc9-obc2K5m-7">
          <mxGeometry as="geometry" relative="1">
            <mxPoint as="sourcePoint" y="409.0000000000002" x="260"/>
            <mxPoint as="targetPoint" y="475.3333333333335" x="436.66666666666697"/>
            <Array as="points"/>
          </mxGeometry>
        </mxCell>
        <mxCell id="oMpaP64kIfc9-obc2K5m-31" style="text;html=1;resizable=0;points=[];autosize=1;align=left;verticalAlign=top;spacingTop=-4;fontSize=24;rotation=-90;" value="Без доставки" parent="1" vertex="1">
          <mxGeometry height="30" as="geometry" y="244" x="469" width="160"/>
        </mxCell>
        <mxCell id="oMpaP64kIfc9-obc2K5m-35" style="edgeStyle=orthogonalEdgeStyle;rounded=0;orthogonalLoop=1;jettySize=auto;html=1;fontSize=26;" target="oMpaP64kIfc9-obc2K5m-31" parent="1" edge="1" source="oMpaP64kIfc9-obc2K5m-7">
          <mxGeometry as="geometry" relative="1">
            <mxPoint as="sourcePoint" y="378.66666666666674" x="506.5"/>
            <mxPoint as="targetPoint" y="339" x="563"/>
            <Array as="points">
              <mxPoint y="379" x="548"/>
            </Array>
          </mxGeometry>
        </mxCell>
        <mxCell id="O-1F34P_9gJHQAsz29hu-14" style="edgeStyle=orthogonalEdgeStyle;rounded=0;orthogonalLoop=1;jettySize=auto;html=1;entryX=0.5;entryY=0;entryDx=0;entryDy=0;strokeWidth=1;fontSize=25;" target="O-1F34P_9gJHQAsz29hu-13" parent="1" edge="1" source="oMpaP64kIfc9-obc2K5m-36">
          <mxGeometry as="geometry" relative="1"/>
        </mxCell>
        <mxCell id="oMpaP64kIfc9-obc2K5m-36" style="rounded=1;whiteSpace=wrap;html=1;fontSize=37;" value="Реализация товаров и услуг" parent="1" vertex="1">
          <mxGeometry height="90" as="geometry" y="357" x="920" width="303"/>
        </mxCell>
        <mxCell id="oMpaP64kIfc9-obc2K5m-40" style="rounded=1;whiteSpace=wrap;html=1;fontSize=37;" value="Транспортная накладная" parent="1" vertex="1">
          <mxGeometry height="90" as="geometry" y="528.5" x="590" width="303"/>
        </mxCell>
        <mxCell id="oMpaP64kIfc9-obc2K5m-60" style="edgeStyle=orthogonalEdgeStyle;rounded=0;orthogonalLoop=1;jettySize=auto;html=1;entryX=1;entryY=0.5;entryDx=0;entryDy=0;strokeWidth=4;fontSize=37;exitX=0.5;exitY=1;exitDx=0;exitDy=0;" target="oMpaP64kIfc9-obc2K5m-58" parent="1" edge="1" source="oMpaP64kIfc9-obc2K5m-52">
          <mxGeometry as="geometry" relative="1">
            <Array as="points">
              <mxPoint y="894" x="350"/>
            </Array>
          </mxGeometry>
        </mxCell>
        <mxCell id="oMpaP64kIfc9-obc2K5m-65" style="edgeStyle=orthogonalEdgeStyle;rounded=0;orthogonalLoop=1;jettySize=auto;html=1;entryX=0.5;entryY=0;entryDx=0;entryDy=0;strokeWidth=1;fontSize=37;exitX=1;exitY=0.5;exitDx=0;exitDy=0;" target="oMpaP64kIfc9-obc2K5m-61" parent="1" edge="1" source="oMpaP64kIfc9-obc2K5m-52">
          <mxGeometry as="geometry" relative="1">
            <Array as="points">
              <mxPoint y="725" x="518"/>
            </Array>
          </mxGeometry>
        </mxCell>
        <mxCell id="oMpaP64kIfc9-obc2K5m-52" style="rounded=1;whiteSpace=wrap;html=1;" value="&lt;font style=&quot;font-size: 37px&quot;&gt;Заказ поставщику&lt;/font&gt;" parent="1" vertex="1">
          <mxGeometry height="90" as="geometry" y="680" x="220" width="260"/>
        </mxCell>
        <mxCell id="oMpaP64kIfc9-obc2K5m-57" style="edgeStyle=orthogonalEdgeStyle;rounded=0;orthogonalLoop=1;jettySize=auto;html=1;fontSize=37;strokeWidth=4;" target="oMpaP64kIfc9-obc2K5m-3" parent="1" edge="1" source="oMpaP64kIfc9-obc2K5m-56">
          <mxGeometry as="geometry" relative="1"/>
        </mxCell>
        <mxCell id="oMpaP64kIfc9-obc2K5m-56" style="ellipse;whiteSpace=wrap;html=1;fontSize=37;fillColor=#60a917;strokeColor=#2D7600;fontColor=#ffffff;" value="&lt;font color=&quot;#b00000&quot;&gt;Клиент&lt;/font&gt;" parent="1" vertex="1">
          <mxGeometry height="131" as="geometry" y="73" width="150"/>
        </mxCell>
        <mxCell id="oMpaP64kIfc9-obc2K5m-62" style="edgeStyle=orthogonalEdgeStyle;rounded=0;orthogonalLoop=1;jettySize=auto;html=1;entryX=0;entryY=0.25;entryDx=0;entryDy=0;strokeWidth=4;fontSize=37;exitX=0.5;exitY=1;exitDx=0;exitDy=0;" target="oMpaP64kIfc9-obc2K5m-61" parent="1" edge="1" source="oMpaP64kIfc9-obc2K5m-58">
          <mxGeometry as="geometry" relative="1">
            <Array as="points">
              <mxPoint y="982" x="78"/>
            </Array>
            <mxPoint as="sourcePoint" y="830" x="98"/>
          </mxGeometry>
        </mxCell>
        <mxCell id="oMpaP64kIfc9-obc2K5m-58" style="ellipse;whiteSpace=wrap;html=1;fontSize=25;fillColor=#a0522d;strokeColor=#6D1F00;fontColor=#ffffff;align=center;" value="&lt;p style=&quot;line-height: 503%; font-size: 25px;&quot;&gt;&lt;/p&gt;&lt;div align=&quot;center&quot; style=&quot;font-size: 25px;&quot;&gt;&lt;font style=&quot;line-height: 40%; font-size: 25px;&quot;&gt;Главный поставщик&lt;/font&gt;&lt;/div&gt;&lt;p style=&quot;font-size: 25px;&quot;&gt;&lt;/p&gt;" parent="1" vertex="1">
          <mxGeometry height="131" as="geometry" y="828" width="155"/>
        </mxCell>
        <mxCell id="oMpaP64kIfc9-obc2K5m-63" style="edgeStyle=orthogonalEdgeStyle;rounded=0;orthogonalLoop=1;jettySize=auto;html=1;strokeWidth=4;fontSize=37;entryX=0;entryY=0.75;entryDx=0;entryDy=0;" target="oMpaP64kIfc9-obc2K5m-61" parent="1" edge="1" source="oMpaP64kIfc9-obc2K5m-59">
          <mxGeometry as="geometry" relative="1">
            <mxPoint as="targetPoint" y="1040" x="655"/>
          </mxGeometry>
        </mxCell>
        <mxCell id="oMpaP64kIfc9-obc2K5m-59" style="ellipse;whiteSpace=wrap;html=1;fontSize=25;fillColor=#b0e3e6;strokeColor=#0e8088;" value="&lt;p style=&quot;line-height: 100% ; font-size: 25px&quot;&gt;&lt;font style=&quot;font-size: 25px&quot;&gt;Сторонний поставщик&lt;/font&gt;&lt;/p&gt;" parent="1" vertex="1">
          <mxGeometry height="130" as="geometry" y="1050" width="155"/>
        </mxCell>
        <mxCell id="oMpaP64kIfc9-obc2K5m-64" style="edgeStyle=orthogonalEdgeStyle;rounded=0;orthogonalLoop=1;jettySize=auto;html=1;entryX=1;entryY=0.5;entryDx=0;entryDy=0;strokeWidth=4;fontSize=37;" target="oMpaP64kIfc9-obc2K5m-59" parent="1" edge="1" source="oMpaP64kIfc9-obc2K5m-61">
          <mxGeometry as="geometry" relative="1">
            <Array as="points">
              <mxPoint y="1030" x="260"/>
              <mxPoint y="1115" x="260"/>
            </Array>
          </mxGeometry>
        </mxCell>
        <mxCell id="oMpaP64kIfc9-obc2K5m-61" style="rounded=1;whiteSpace=wrap;html=1;" value="&lt;font style=&quot;font-size: 37px&quot;&gt;Поступление товаров и услуг&lt;/font&gt;" parent="1" vertex="1">
          <mxGeometry height="93" as="geometry" y="959" x="360" width="316"/>
        </mxCell>
        <mxCell id="O-1F34P_9gJHQAsz29hu-11" style="edgeStyle=orthogonalEdgeStyle;rounded=0;orthogonalLoop=1;jettySize=auto;html=1;exitX=0.5;exitY=1;exitDx=0;exitDy=0;entryX=0.5;entryY=1;entryDx=0;entryDy=0;fontSize=25;strokeWidth=4;" target="O-1F34P_9gJHQAsz29hu-9" parent="1" edge="1" source="oMpaP64kIfc9-obc2K5m-66">
          <mxGeometry as="geometry" relative="1">
            <Array as="points">
              <mxPoint y="1220" x="1072"/>
              <mxPoint y="1220" x="1560"/>
            </Array>
          </mxGeometry>
        </mxCell>
        <mxCell id="oMpaP64kIfc9-obc2K5m-66" style="rounded=1;whiteSpace=wrap;html=1;" value="&lt;font style=&quot;font-size: 37px&quot;&gt;Приходный ордер на товары&lt;/font&gt;" parent="1" vertex="1">
          <mxGeometry height="90" as="geometry" y="720" x="920" width="303"/>
        </mxCell>
        <mxCell id="oMpaP64kIfc9-obc2K5m-68" style="endArrow=classic;html=1;strokeWidth=1;fontSize=37;entryX=0;entryY=0.5;entryDx=0;entryDy=0;rounded=0;exitX=0.75;exitY=0;exitDx=0;exitDy=0;" target="oMpaP64kIfc9-obc2K5m-66" value="" parent="1" edge="1" source="oMpaP64kIfc9-obc2K5m-61">
          <mxGeometry height="50" as="geometry" width="50" relative="1">
            <mxPoint as="sourcePoint" y="1066.5" x="958.5"/>
            <mxPoint as="targetPoint" y="1016.5" x="1029.2106781186548"/>
            <Array as="points">
              <mxPoint y="765" x="597"/>
            </Array>
          </mxGeometry>
        </mxCell>
        <mxCell id="oMpaP64kIfc9-obc2K5m-71" style="text;html=1;resizable=0;points=[];autosize=1;align=left;verticalAlign=top;spacingTop=-4;fontSize=61;" value="&lt;span style=&quot;text-align: left ; color: rgb(0 , 0 , 0) ; text-transform: none ; line-height: 1.2 ; text-indent: 0px ; letter-spacing: normal ; font-family: &amp;#34;helvetica&amp;#34; ; font-size: 61px ; font-style: normal ; font-variant: normal ; text-decoration: none ; word-spacing: 0px ; display: inline ; white-space: nowrap ; float: none ; overflow-wrap: normal ; background-color: rgb(248 , 249 , 250)&quot;&gt;&lt;b&gt;БИЗНЕС-ПРОЦЕСС&lt;/b&gt;&lt;/span&gt;" parent="1" vertex="1">
          <mxGeometry height="70" as="geometry" y="10" x="169" width="600"/>
        </mxCell>
        <mxCell id="O-1F34P_9gJHQAsz29hu-3" style="endArrow=classic;html=1;fontSize=25;entryX=0;entryY=0.25;entryDx=0;entryDy=0;rounded=0;" target="oMpaP64kIfc9-obc2K5m-21" value="" parent="1" edge="1" source="oMpaP64kIfc9-obc2K5m-31">
          <mxGeometry height="50" as="geometry" width="50" relative="1">
            <mxPoint as="sourcePoint" y="174" x="546"/>
            <mxPoint as="targetPoint" y="179" x="1380"/>
            <Array as="points">
              <mxPoint y="132" x="546"/>
            </Array>
          </mxGeometry>
        </mxCell>
        <mxCell id="O-1F34P_9gJHQAsz29hu-12" style="edgeStyle=orthogonalEdgeStyle;rounded=0;orthogonalLoop=1;jettySize=auto;html=1;exitX=0;exitY=0.5;exitDx=0;exitDy=0;entryX=0.5;entryY=0;entryDx=0;entryDy=0;fontSize=25;strokeWidth=4;" target="oMpaP64kIfc9-obc2K5m-21" parent="1" edge="1" source="O-1F34P_9gJHQAsz29hu-8">
          <mxGeometry as="geometry" relative="1"/>
        </mxCell>
        <mxCell id="O-1F34P_9gJHQAsz29hu-8" style="rounded=0;whiteSpace=wrap;html=1;fillColor=#fff2cc;strokeColor=#d6b656;rotation=90;" value="" parent="1" vertex="1">
          <mxGeometry height="379" as="geometry" y="455" x="1019" width="1085"/>
        </mxCell>
        <mxCell id="O-1F34P_9gJHQAsz29hu-9" style="rounded=0;whiteSpace=wrap;html=1;fontSize=40;rotation=0;fontStyle=1;fillColor=#fff2cc;strokeColor=#d6b656;" value="СКЛАД" parent="1" vertex="1">
          <mxGeometry height="77" as="geometry" y="1113" x="1370" width="380"/>
        </mxCell>
        <mxCell id="O-1F34P_9gJHQAsz29hu-15" style="edgeStyle=orthogonalEdgeStyle;rounded=0;orthogonalLoop=1;jettySize=auto;html=1;entryX=0.5;entryY=0;entryDx=0;entryDy=0;strokeWidth=1;fontSize=25;" target="oMpaP64kIfc9-obc2K5m-66" parent="1" edge="1" source="O-1F34P_9gJHQAsz29hu-13">
          <mxGeometry as="geometry" relative="1"/>
        </mxCell>
        <mxCell id="O-1F34P_9gJHQAsz29hu-13" style="rounded=1;whiteSpace=wrap;html=1;fontSize=37;" value="Возврат товаров от клиента" parent="1" vertex="1">
          <mxGeometry height="90" as="geometry" y="483.5" x="920" width="303"/>
        </mxCell>
        <mxCell id="O-1F34P_9gJHQAsz29hu-16" style="rounded=1;whiteSpace=wrap;html=1;fontSize=37;" value="Перемещение товаров" parent="1" vertex="1">
          <mxGeometry height="90" as="geometry" y="124" x="1406.5" width="303"/>
        </mxCell>
        <mxCell id="O-1F34P_9gJHQAsz29hu-17" style="rounded=1;whiteSpace=wrap;html=1;fontSize=37;" value="Пересортица товаров" parent="1" vertex="1">
          <mxGeometry height="90" as="geometry" y="333" x="1406.5" width="303"/>
        </mxCell>
        <mxCell id="O-1F34P_9gJHQAsz29hu-18" style="rounded=1;whiteSpace=wrap;html=1;fontSize=37;" value="Инвертаризация" parent="1" vertex="1">
          <mxGeometry height="90" as="geometry" y="227.5" x="1406.5" width="303"/>
        </mxCell>
        <mxCell id="O-1F34P_9gJHQAsz29hu-20" style="rounded=1;whiteSpace=wrap;html=1;fontSize=37;" value="Оприходование излишков" parent="1" vertex="1">
          <mxGeometry height="90" as="geometry" y="441.5" x="1410" width="303"/>
        </mxCell>
        <mxCell id="O-1F34P_9gJHQAsz29hu-21" style="rounded=1;whiteSpace=wrap;html=1;fontSize=37;" value="Списание недостач" parent="1" vertex="1">
          <mxGeometry height="90" as="geometry" y="550" x="1410" width="303"/>
        </mxCell>
      </root>
    </mxGraphModel>
  </diagram>
</mxfile>
